<svg id="Layer_1" data-name="Layer 1" xmlns="http://www.w3.org/2000/svg" viewBox="0 0 504.44 78.15"><defs><style>.cls-1{fill:#0d6efd;}</style></defs><path class="cls-1" d="M3.78,216.58c1.77.07,4.12.13,7.07.2s5.89.1,8.84.1c3.2,0,6.29,0,9.27-.1s5.09-.1,6.34-.1q14.33,0,21.35,5.4a16.82,16.82,0,0,1,7,13.94,21.65,21.65,0,0,1-1.42,7.41,19.21,19.21,0,0,1-4.82,7.17A24.79,24.79,0,0,1,48.11,256a46.11,46.11,0,0,1-15,2.06H22.92v-2h9.23c3.6,0,6.34-.88,8.2-2.65a13.72,13.72,0,0,0,3.83-7,40,40,0,0,0,1-9.33q0-9.33-2.45-13.94t-8.35-4.62q-3.63,0-4.66,1.67t-1,6.78V274.9a16.41,16.41,0,0,0,.78,5.84,4.24,4.24,0,0,0,3.14,2.5,31.86,31.86,0,0,0,6.78.69v2.16c-2.16-.06-4.94-.13-8.35-.19s-7-.1-10.7-.1q-4.41,0-8.69.1l-7.9.19v-2a16.07,16.07,0,0,0,4.57-.79A3.41,3.41,0,0,0,10.41,281a19.47,19.47,0,0,0,.54-5.31V227a19.31,19.31,0,0,0-.54-5.35,3.57,3.57,0,0,0-2.06-2.36,13.86,13.86,0,0,0-4.57-.74Z" transform="translate(-3.78 -209.32)"/><path class="cls-1" d="M79.18,286.78q-6.57,0-9.57-3.49a12.41,12.41,0,0,1-3-8.39,11.47,11.47,0,0,1,1.91-6.82,14.56,14.56,0,0,1,5-4.37,38.68,38.68,0,0,1,6.38-2.8c2.22-.75,4.35-1.51,6.38-2.26a18.81,18.81,0,0,0,4.91-2.55A4.45,4.45,0,0,0,93,252.42v-8.15a13,13,0,0,0-.64-4.08,6.46,6.46,0,0,0-2.26-3.14,7.24,7.24,0,0,0-4.47-1.23,12,12,0,0,0-3.43.5,7.84,7.84,0,0,0-3,1.57,9.08,9.08,0,0,1,4.66,3.24,8.12,8.12,0,0,1,1.53,4.81A7.12,7.12,0,0,1,83,251.68,8.91,8.91,0,0,1,77,253.79a7.1,7.1,0,0,1-5.74-2.36,8.46,8.46,0,0,1-2-5.69,8.19,8.19,0,0,1,1.47-5,14,14,0,0,1,4.32-3.68,21.77,21.77,0,0,1,6.87-2.45,44,44,0,0,1,8.54-.79,36.47,36.47,0,0,1,8.5.93,13.73,13.73,0,0,1,6.62,3.69,10.41,10.41,0,0,1,2.75,5.49,47.76,47.76,0,0,1,.59,8.25v26.51a9,9,0,0,0,.44,3.39,1.49,1.49,0,0,0,1.43.93,3.22,3.22,0,0,0,1.76-.49,12.49,12.49,0,0,0,1.48-1.08l1.08,1.67a15.58,15.58,0,0,1-5.11,2.7,21.07,21.07,0,0,1-6.38.93q-6.09,0-8.15-2.36a8.39,8.39,0,0,1-2.16-5.4,17,17,0,0,1-5.69,5.7A16.23,16.23,0,0,1,79.18,286.78Zm8.74-7.07a5.72,5.72,0,0,0,2.7-.64A7.38,7.38,0,0,0,93,276.86V256.44a10.59,10.59,0,0,1-2.85,3.19c-1.18.89-2.37,1.84-3.59,2.85a13,13,0,0,0-3,3.78,12.53,12.53,0,0,0-1.23,6c0,2.68.54,4.6,1.62,5.74A5.25,5.25,0,0,0,87.92,279.71Z" transform="translate(-3.78 -209.32)"/><path class="cls-1" d="M155.47,233.86a18.38,18.38,0,0,1,6.92,1.08,10,10,0,0,1,4,2.75,11.74,11.74,0,0,1,2.31,4.81,34.09,34.09,0,0,1,.74,7.95V277q0,4.13,1.32,5.6T175.3,284v2.06c-1.31-.06-3.26-.15-5.84-.24s-5.09-.15-7.51-.15c-2.69,0-5.27.05-7.76.15s-4.35.18-5.6.24V284c1.84,0,3.11-.49,3.83-1.47s1.08-2.85,1.08-5.6V245.74a13.42,13.42,0,0,0-.49-3.88,4.44,4.44,0,0,0-1.67-2.45,5.68,5.68,0,0,0-3.34-.84,7.83,7.83,0,0,0-5.89,2.6,9.32,9.32,0,0,0-2.45,6.63V277q0,4.13,1.08,5.6c.72,1,2,1.47,3.83,1.47v2.06c-1.25-.06-3-.15-5.4-.24s-4.75-.15-7.17-.15c-2.68,0-5.37.05-8,.15s-4.71.18-6.09.24V284c2.16,0,3.69-.49,4.57-1.47s1.32-2.85,1.32-5.6v-31c0-2.95-.42-5.12-1.27-6.53s-2.39-2.11-4.62-2.11v-2.06q3.15.28,6.09.29c3,0,5.74-.11,8.39-.34a65.52,65.52,0,0,0,7.32-1v8a13.61,13.61,0,0,1,6.43-6.38A22.22,22.22,0,0,1,155.47,233.86Z" transform="translate(-3.78 -209.32)"/><path class="cls-1" d="M201.61,233.86a20.45,20.45,0,0,1,7.46,1.23,11.47,11.47,0,0,1,5.2,4.07l-1.17,1a7.78,7.78,0,0,0-3.1-2.45,9.49,9.49,0,0,0-3.78-.79q-4.71,0-7.31,5.85t-2.6,17.91a67.1,67.1,0,0,0,1,13.31q1,4.86,2.84,6.82a5.46,5.46,0,0,0,4.08,2,7.66,7.66,0,0,0,5.45-2.3,8.43,8.43,0,0,0,2.5-6.14l.3,4.12a14.78,14.78,0,0,1-4.86,6.78,13.13,13.13,0,0,1-7.91,2.26,18.12,18.12,0,0,1-17.42-11.64q-2.61-5.94-2.61-15.46,0-8.94,2.8-14.78a19.84,19.84,0,0,1,7.76-8.78A21.69,21.69,0,0,1,201.61,233.86ZM228,209.32v66c0,2.95.44,5.12,1.32,6.53s2.41,2.11,4.57,2.11V286q-3-.28-6.09-.29c-2.94,0-5.73.1-8.34.29a50.77,50.77,0,0,0-7.37,1.08v-66c0-2.95-.41-5.12-1.22-6.53s-2.38-2.11-4.67-2.11V210.4q3.15.28,6.09.29,4.51,0,8.44-.34A65.91,65.91,0,0,0,228,209.32Z" transform="translate(-3.78 -209.32)"/><path class="cls-1" d="M250.6,286.78q-6.58,0-9.57-3.49a12.42,12.42,0,0,1-3-8.39,11.47,11.47,0,0,1,1.92-6.82,14.47,14.47,0,0,1,5-4.37,38.31,38.31,0,0,1,6.38-2.8c2.22-.75,4.35-1.51,6.38-2.26a19,19,0,0,0,4.91-2.55,4.44,4.44,0,0,0,1.86-3.68v-8.15a12.73,12.73,0,0,0-.64-4.08,6.38,6.38,0,0,0-2.25-3.14,7.24,7.24,0,0,0-4.47-1.23,12.08,12.08,0,0,0-3.44.5,7.88,7.88,0,0,0-2.94,1.57,9.08,9.08,0,0,1,4.66,3.24,8.11,8.11,0,0,1,1.52,4.81,7.11,7.11,0,0,1-2.5,5.74,8.91,8.91,0,0,1-5.94,2.11,7.1,7.1,0,0,1-5.74-2.36,8.42,8.42,0,0,1-2-5.69,8.13,8.13,0,0,1,1.48-5,14,14,0,0,1,4.32-3.68,21.59,21.59,0,0,1,6.87-2.45,44,44,0,0,1,8.54-.79,36.32,36.32,0,0,1,8.49.93,13.72,13.72,0,0,1,6.63,3.69,10.41,10.41,0,0,1,2.75,5.49,47.76,47.76,0,0,1,.59,8.25v26.51a9,9,0,0,0,.44,3.39,1.48,1.48,0,0,0,1.42.93,3.23,3.23,0,0,0,1.77-.49,13.24,13.24,0,0,0,1.47-1.08l1.08,1.67a15.53,15.53,0,0,1-5.1,2.7,21.11,21.11,0,0,1-6.38.93q-6.09,0-8.15-2.36a8.34,8.34,0,0,1-2.16-5.4,17,17,0,0,1-5.7,5.7A16.17,16.17,0,0,1,250.6,286.78Zm8.74-7.07a5.72,5.72,0,0,0,2.7-.64,7.36,7.36,0,0,0,2.4-2.21V256.44a10.55,10.55,0,0,1-2.84,3.19q-1.77,1.33-3.59,2.85a13,13,0,0,0-3,3.78,12.53,12.53,0,0,0-1.23,6c0,2.68.54,4.6,1.62,5.74A5.25,5.25,0,0,0,259.34,279.71Z" transform="translate(-3.78 -209.32)"/><path class="cls-1" d="M315,233.86a29.46,29.46,0,0,1,7.37.84,19.11,19.11,0,0,1,5.3,2.11,12.77,12.77,0,0,1,4.12,4,10.34,10.34,0,0,1,1.57,5.7,8.58,8.58,0,0,1-2.45,6.23,8.31,8.31,0,0,1-6.19,2.5,8.06,8.06,0,0,1-6-2.25,7.93,7.93,0,0,1-2.21-5.8,8.25,8.25,0,0,1,2.16-5.79,10.46,10.46,0,0,1,5.1-3.14,5.94,5.94,0,0,0-2-1.28,8,8,0,0,0-2.9-.49,8.32,8.32,0,0,0-5.59,1.92,13.73,13.73,0,0,0-3.68,5.2,30,30,0,0,0-2.07,7.36,55,55,0,0,0-.64,8.4q0,7.26,1.92,11.34a12.16,12.16,0,0,0,4.81,5.69,12,12,0,0,0,5.94,1.62,17,17,0,0,0,5.79-1.28q3.44-1.26,6.58-6l1.67.59a25.75,25.75,0,0,1-3.63,7.55,20.82,20.82,0,0,1-6.58,6.14,18.88,18.88,0,0,1-9.82,2.41,25.74,25.74,0,0,1-11.73-2.65,19.51,19.51,0,0,1-8.4-8.55q-3.13-5.88-3.14-15.41,0-9.23,3.24-15.17a21.09,21.09,0,0,1,8.89-8.88A26.77,26.77,0,0,1,315,233.86Z" transform="translate(-3.78 -209.32)"/><path class="cls-1" d="M388.64,234.16v41.23c0,2.95.44,5.12,1.32,6.53s2.41,2.11,4.57,2.11v2.06q-3-.29-6.09-.29-4.51,0-8.39.29a50.68,50.68,0,0,0-7.32,1.08v-7.95a13.91,13.91,0,0,1-6.43,6.33,21.5,21.5,0,0,1-9.28,1.92,18.38,18.38,0,0,1-6.92-1.08,9.47,9.47,0,0,1-4-2.85,10.53,10.53,0,0,1-2.26-4.76,36.51,36.51,0,0,1-.69-7.91V245.94c0-2.95-.43-5.12-1.28-6.53s-2.39-2.11-4.61-2.11v-2.06q3.13.28,6.09.29,4.51,0,8.44-.34a65.91,65.91,0,0,0,7.27-1v41.43a12.92,12.92,0,0,0,.49,3.83,4.68,4.68,0,0,0,1.67,2.45,5.09,5.09,0,0,0,3.14.88,7.74,7.74,0,0,0,5.89-2.65,9.32,9.32,0,0,0,2.45-6.57V245.94c0-2.95-.42-5.12-1.27-6.53s-2.39-2.11-4.62-2.11v-2.06q3.15.28,6.09.29,4.51,0,8.44-.34A65.91,65.91,0,0,0,388.64,234.16Z" transform="translate(-3.78 -209.32)"/><path class="cls-1" d="M433.41,233.86a8.93,8.93,0,0,1,5.3,1.42,8.14,8.14,0,0,1,2.85,3.64,11.87,11.87,0,0,1,.88,4.37,9.08,9.08,0,0,1-2.31,6.48,7.93,7.93,0,0,1-6,2.45,8.78,8.78,0,0,1-6-1.82,6.16,6.16,0,0,1-2.06-4.86,8.72,8.72,0,0,1,1.33-5,12.74,12.74,0,0,1,3.29-3.34,5.37,5.37,0,0,0-2.85.39A7.68,7.68,0,0,0,424,239.8a12.64,12.64,0,0,0-2.6,3.93,11.62,11.62,0,0,0-.93,4.56V276q0,4.71,2.11,6.38c1.4,1.11,3.65,1.67,6.72,1.67v2.06c-1.5-.06-3.73-.15-6.67-.24s-6-.15-9.13-.15q-4.23,0-8.5.15c-2.84.09-5,.18-6.33.24V284q3.24,0,4.57-1.47t1.32-5.6v-31c0-2.95-.42-5.12-1.27-6.53s-2.39-2.11-4.62-2.11v-2.06c2.1.19,4.12.29,6.09.29q4.41,0,8.39-.34a65.86,65.86,0,0,0,7.32-1v8.05a14.4,14.4,0,0,1,3.09-4.42,14,14,0,0,1,4.42-2.9A14.11,14.11,0,0,1,433.41,233.86Z" transform="translate(-3.78 -209.32)"/><path class="cls-1" d="M479.94,233.86a8.94,8.94,0,0,1,5.31,1.42,8.19,8.19,0,0,1,2.84,3.64,11.69,11.69,0,0,1,.89,4.37,9.08,9.08,0,0,1-2.31,6.48,7.93,7.93,0,0,1-6,2.45,8.76,8.76,0,0,1-6-1.82,6.16,6.16,0,0,1-2.06-4.86,8.72,8.72,0,0,1,1.33-5,12.7,12.7,0,0,1,3.28-3.34,5.32,5.32,0,0,0-2.84.39,7.68,7.68,0,0,0-3.83,2.21,12.47,12.47,0,0,0-2.6,3.93,11.46,11.46,0,0,0-.94,4.56V276q0,4.71,2.12,6.38t6.72,1.67v2.06c-1.51-.06-3.73-.15-6.68-.24s-6-.15-9.13-.15q-4.22,0-8.49.15c-2.85.09-5,.18-6.33.24V284q3.24,0,4.56-1.47t1.33-5.6v-31c0-2.95-.43-5.12-1.28-6.53s-2.39-2.11-4.61-2.11v-2.06q3.13.28,6.08.29,4.43,0,8.4-.34a65.33,65.33,0,0,0,7.31-1v8.05a14.6,14.6,0,0,1,3.1-4.42,13.91,13.91,0,0,1,4.41-2.9A14.14,14.14,0,0,1,479.94,233.86Z" transform="translate(-3.78 -209.32)"/><path class="cls-1" d="M499.19,271.46a9.81,9.81,0,0,1,6.62,2.07,7.3,7.3,0,0,1,2.41,5.89,7.42,7.42,0,0,1-2.41,6,11.72,11.72,0,0,1-13.3,0,7.52,7.52,0,0,1-2.35-6,7.39,7.39,0,0,1,2.35-5.89A9.8,9.8,0,0,1,499.19,271.46Z" transform="translate(-3.78 -209.32)"/></svg>